<svg xmlns="http://www.w3.org/2000/svg" version="1.1" xmlns:xlink="http://www.w3.org/1999/xlink" xmlns:svgjs="http://svgjs.com/svgjs" width="1000" height="1000"><rect width="1000" height="1000" rx="500" ry="500" fill="#ffffff"></rect><g transform="matrix(0.6400546179940688,0,0,0.6400546179940688,200.00032097180366,290.10510894885425)"><svg xmlns="http://www.w3.org/2000/svg" version="1.1" xmlns:xlink="http://www.w3.org/1999/xlink" xmlns:svgjs="http://svgjs.com/svgjs" width="937.42" height="655.85"><svg xmlns="http://www.w3.org/2000/svg" viewBox="0 0 937.42 655.85"><defs><style>.a{fill:none;stroke:#000;stroke-linecap:round;stroke-miterlimit:10;stroke-width:20px;}</style></defs><path class="a" d="M267.82,608.77A301.27,301.27,0,0,1,231,448.9L891.36,611.72A211.64,211.64,0,0,1,839,684.21a206.55,206.55,0,0,1-31.15,22.9" transform="translate(-31.29 -172.07)"></path><path class="a" d="M369.68,435.25c14.9-24.48,167.3-267.69,375.5-252.49a268.92,268.92,0,0,1,84.43,20.47" transform="translate(-31.29 -172.07)"></path><path class="a" d="M682.06,503.11c5.14-53.81,22.45-146.94,88.44-234.76A433.63,433.63,0,0,1,830,203.94" transform="translate(-31.29 -172.07)"></path><path class="a" d="M803.62,547.69C787,506.6,762.11,427.81,776,331.12A404.23,404.23,0,0,1,805.4,227.87" transform="translate(-31.29 -172.07)"></path><path class="a" d="M130,641.47c20.64-21.89,26.29-45.64,17.58-56.79-7.32-9.36-23.37-8.1-29.8-7.59C86.32,579.56,66.48,606.92,60.62,615c-8.35,11.5-21.24,29.26-19.09,54,.57,6.55,3.75,31.61,26,47.25,14.53,10.21,30.76,11.06,40.7,10.89,74.72-1.33,178.9-66.12,266.46-67.11,29.39-.33,74.43,6.33,130.51,45.11" transform="translate(-31.29 -172.07)"></path><path class="a" d="M371.23,734.05c7.21,10.66,19.39,25,38.2,31.78,35.41,12.85,72.66-8.62,84.67-14.73,38.6-19.63,110.41-30,256.66,17.53" transform="translate(-31.29 -172.07)"></path><path class="a" d="M652.1,786.74c7.14,8.22,19,19.47,36.18,26,41.27,15.75,78.59-8.7,121.17-19.32,32.79-8.18,81.76-11.41,149.26,14.12" transform="translate(-31.29 -172.07)"></path></svg></svg></g></svg>