<svg xmlns="http://www.w3.org/2000/svg" viewBox="0 0 254.98 48.38" height="25"><defs><style>.a,.b{fill:none;stroke:#000;stroke-miterlimit:10;stroke-width:2px;}.a{stroke-linecap:round;}</style></defs><path d="M102.22,133.42a1.1,1.1,0,0,1,0-1.47.87.87,0,0,1,.77-.25l1.2.1c2.1.13,3.72.2,4.85.2h29.1a3.07,3.07,0,0,0,1.67-.42,8.38,8.38,0,0,0,1.43-1.18,3.18,3.18,0,0,1,2.2-1.1,4.08,4.08,0,0,1,2.75,1.6,2,2,0,0,1,.55,1.25,1.08,1.08,0,0,1-.45.9,2.1,2.1,0,0,1-1.3.35l-18.2,0a1.76,1.76,0,0,0-1.27.45,1.69,1.69,0,0,0-.48,1.3v6.35a1.64,1.64,0,0,0,1.75,1.75h4a1.88,1.88,0,0,0,.88-.22,4.76,4.76,0,0,0,.77-.53,6.35,6.35,0,0,1,.65-.47,1.22,1.22,0,0,1,.7-.23,3.17,3.17,0,0,1,1.43.5,7.14,7.14,0,0,1,1.52,1.15,1.78,1.78,0,0,1,.65,1.05.82.82,0,0,1-.15.53,5.09,5.09,0,0,1-.45.42,2.51,2.51,0,0,0-.62.65,2,2,0,0,0-.23,1v17.45a1.8,1.8,0,0,1-.7,1.5,2.43,2.43,0,0,1-1.55.55q-.7,0-.9-.42a2.76,2.76,0,0,1-.2-1.13,2.1,2.1,0,0,0-.45-1.42,1.62,1.62,0,0,0-1.3-.53H115.94a2,2,0,0,0-1.3.38,1.31,1.31,0,0,0-.45,1.07,1.8,1.8,0,0,1-.7,1.47,2.31,2.31,0,0,1-1.5.58c-.67,0-1-.38-1-1.15v-23c0-.37.25-.55.75-.55a3.72,3.72,0,0,1,1.48.25,7.69,7.69,0,0,1,1.17.65,1.91,1.91,0,0,0,.85.4h4.85a1.72,1.72,0,0,0,1.3-.47,1.8,1.8,0,0,0,.45-1.28v-6.4a1.57,1.57,0,0,0-1.75-1.75H109c-1.33,0-3,.07-4.85.2l-1.2.1A.83.83,0,0,1,102.22,133.42Zm.32,7.73a2.34,2.34,0,0,1,.73-1.88,2.71,2.71,0,0,1,1.82-.62,3,3,0,0,1,1.5.35c.4.23.6.47.6.7s-.27.42-.8.45a.64.64,0,0,0-.47.35,1.25,1.25,0,0,0-.18.65v27.3a1.65,1.65,0,0,0,1.75,1.75h31.9a1.69,1.69,0,0,0,1.3-.48,1.76,1.76,0,0,0,.45-1.27V141.2a2.31,2.31,0,0,1,.73-1.87,2.67,2.67,0,0,1,1.82-.63,3,3,0,0,1,1.5.35c.4.23.6.47.6.7s-.27.42-.8.45a.64.64,0,0,0-.47.35,1.25,1.25,0,0,0-.18.65v31.55a1.83,1.83,0,0,1-.67,1.47,2.15,2.15,0,0,1-1.43.58,1.07,1.07,0,0,1-1.1-1.25v-.7a1.11,1.11,0,0,0-1.25-1.25H106.94c-.73,0-1.15.43-1.25,1.3a2,2,0,0,1-.38,1,2.71,2.71,0,0,1-.82.63,1.72,1.72,0,0,1-.85.2,1.06,1.06,0,0,1-1.1-1.25Zm11.65,9.5a1.75,1.75,0,0,0,.45,1.3,1.69,1.69,0,0,0,1.25.45h4.2a1.69,1.69,0,0,0,1.3-.48,1.76,1.76,0,0,0,.45-1.27V146.4a1.57,1.57,0,0,0-1.75-1.75h-4.15a1.76,1.76,0,0,0-1.27.45,1.69,1.69,0,0,0-.48,1.3Zm0,9.4a1.64,1.64,0,0,0,1.75,1.75h4.15a1.72,1.72,0,0,0,1.3-.47,1.8,1.8,0,0,0,.45-1.28v-4.2a1.57,1.57,0,0,0-1.75-1.75h-4.2a1.69,1.69,0,0,0-1.25.45,1.75,1.75,0,0,0-.45,1.3ZM125,150.7a1.64,1.64,0,0,0,1.75,1.75H131a1.69,1.69,0,0,0,1.25-.45,1.75,1.75,0,0,0,.45-1.3v-4.3a1.57,1.57,0,0,0-1.75-1.75h-4.15a1.76,1.76,0,0,0-1.27.45,1.69,1.69,0,0,0-.48,1.3Zm0,9.4a1.64,1.64,0,0,0,1.75,1.75h4.15a1.72,1.72,0,0,0,1.3-.47,1.8,1.8,0,0,0,.45-1.28v-4.3a1.87,1.87,0,0,0-.4-1.3,1.4,1.4,0,0,0-1.1-.45h-4.4a1.76,1.76,0,0,0-1.27.45,1.69,1.69,0,0,0-.48,1.3Z" transform="translate(-41.41 -129.1)"/><path d="M156.29,145.6a64.63,64.63,0,0,0,3.85-14.25,2.24,2.24,0,0,1,.92-1.45,2.94,2.94,0,0,1,1.68-.5,3.68,3.68,0,0,1,1.78.45,3.12,3.12,0,0,1,1.27,1.3,1.19,1.19,0,0,1,.15.5.4.4,0,0,1-.2.37.79.79,0,0,1-.55.08,1.48,1.48,0,0,0-.45-.1c-.43,0-.75.37-1,1.1a68.31,68.31,0,0,1-3.7,12.1.92.92,0,0,0-.05.35c0,.47.33.75,1,.85a1.63,1.63,0,0,1,.75.33.62.62,0,0,1,.25.47.53.53,0,0,1-.2.42,1,1,0,0,1-.6.23.64.64,0,0,0-.47.35,1.25,1.25,0,0,0-.18.65V174.1a1.86,1.86,0,0,1-.67,1.48,2.19,2.19,0,0,1-1.43.57,1.06,1.06,0,0,1-1.1-1.25V151.6a1.07,1.07,0,0,0-.15-.62.46.46,0,0,0-.4-.23.83.83,0,0,0-.65.45,26.45,26.45,0,0,1-5.45,6.65,1.3,1.3,0,0,1-.85.4c-.3,0-.45-.18-.45-.55a1.45,1.45,0,0,1,.4-1A45.61,45.61,0,0,0,156.29,145.6Zm14.33,20.85a32.47,32.47,0,0,0,6.77-4.85l1-.95a.77.77,0,0,0,.35-1l-.15-.5c-.1-.37-.28-.55-.55-.55a.92.92,0,0,0-.45.15,52.59,52.59,0,0,1-7.25,3.85,43.33,43.33,0,0,1-6.4,2.25,2.56,2.56,0,0,1-.55.1c-.47,0-.7-.17-.7-.5a.74.74,0,0,1,.28-.52,2.16,2.16,0,0,1,.72-.48,41.83,41.83,0,0,0,12.05-7.25l.8-.65a.76.76,0,0,0,.3-1l-.3-.5a.63.63,0,0,0-.6-.4l-.4.1a39.39,39.39,0,0,1-5.62,2.55c-1.79.63-3.71,1.22-5.78,1.75l-.25.05a.54.54,0,0,1-.4-.15.49.49,0,0,1-.15-.35c0-.4.27-.7.8-.9l2.93-1a27.42,27.42,0,0,0,5.25-2.56,38,38,0,0,0,5.27-3.92.83.83,0,0,0,.3-.55.38.38,0,0,0-.15-.28.71.71,0,0,0-.45-.12h-2.9c-1.07,0-1.65.38-1.75,1.15a1.94,1.94,0,0,1-.72,1.3,2.26,2.26,0,0,1-1.43.5,1,1,0,0,1-.75-.3,1.22,1.22,0,0,1-.3-.9v-7.2c0-.43-.13-.65-.4-.65a1.06,1.06,0,0,0-.5.25,58.73,58.73,0,0,1-5.1,3.75.66.66,0,0,1-.4.15.44.44,0,0,1-.5-.5.94.94,0,0,1,.45-.7,36.67,36.67,0,0,0,5.68-6.05,37.87,37.87,0,0,0,4.77-8.45,2.38,2.38,0,0,1,1-1.13,3,3,0,0,1,1.52-.42,2.51,2.51,0,0,1,2.1,1.05,1.21,1.21,0,0,1,.35.75c0,.33-.35.5-1,.5a.81.81,0,0,0-.57.22,2.73,2.73,0,0,0-.43.58l-.35.6a.66.66,0,0,0-.15.4.45.45,0,0,0,.18.35.68.68,0,0,0,.47.15h4.95a3,3,0,0,0,1.1-.2,4.9,4.9,0,0,0,1.1-.65,1.8,1.8,0,0,1,1.15-.45,1.69,1.69,0,0,1,1,.3c1.27.8,1.9,1.57,1.9,2.3a1.05,1.05,0,0,1-.18.67,2.34,2.34,0,0,1-.62.53,7.86,7.86,0,0,0-1.35,1.15c-.3.37-.75.85-1.35,1.45a1.26,1.26,0,0,0-.45.85c0,.43.35.65,1.05.65h2.8a1.88,1.88,0,0,0,.88-.22,4.76,4.76,0,0,0,.77-.53,6.35,6.35,0,0,1,.65-.47,1.22,1.22,0,0,1,.7-.23,3.18,3.18,0,0,1,1.63.5,6.09,6.09,0,0,1,1.39,1.15,1.79,1.79,0,0,1,.58,1.05.82.82,0,0,1-.15.53,5.09,5.09,0,0,1-.45.42,2.36,2.36,0,0,0-.62.65,2,2,0,0,0-.23,1v5.15a1.67,1.67,0,0,1-.65,1.4,2.48,2.48,0,0,1-1.55.5.9.9,0,0,1-.87-.4,2.37,2.37,0,0,1-.28-1,1.54,1.54,0,0,0-.5-1.1,1.81,1.81,0,0,0-1.25-.4h-3.8a1.36,1.36,0,0,0-1,.43.92.92,0,0,0-.28,1,32,32,0,0,0,3,7.6c.27.5.58.75.95.75a1.37,1.37,0,0,0,.75-.35,32.81,32.81,0,0,0,5.2-5,2.4,2.4,0,0,1,1.7-.9,2.34,2.34,0,0,1,1.85,1,3.5,3.5,0,0,1,.8,2.28.68.68,0,0,1-.15.47.49.49,0,0,1-.4.18c-.2,0-.38-.13-.55-.4a.23.23,0,0,0-.25-.15,1.24,1.24,0,0,0-.7.3,60.34,60.34,0,0,1-6.55,3.8,1.16,1.16,0,0,0-.7,1,1.35,1.35,0,0,0,.25.7,35.44,35.44,0,0,0,4.75,5.8,25.63,25.63,0,0,0,5.35,4.1c.43.23.65.48.65.75s-.27.45-.8.45c-1.83,0-2.95.37-3.35,1.1-.23.53-.48.8-.75.8a.62.62,0,0,1-.45-.2,28,28,0,0,1-7.17-8.92,55.1,55.1,0,0,1-5-13.43c-.07-.37-.23-.55-.5-.55a.92.92,0,0,0-.45.15l-1.55,1.1a.8.8,0,0,0-.4.6,1,1,0,0,0,.2.45,19.39,19.39,0,0,1,3.3,6,20.57,20.57,0,0,1,1.2,6.83,14.64,14.64,0,0,1-1.3,6.35,8.22,8.22,0,0,1-2,2.95,4,4,0,0,1-2.63.95,1,1,0,0,1-.7-.17,1.19,1.19,0,0,1-.2-.63,2.86,2.86,0,0,0-.4-1.07,3.4,3.4,0,0,0-1.1-1c-.7-.4-1.37-.75-2-1-.17-.1-.41-.22-.72-.38a4.31,4.31,0,0,1-.83-.47,1,1,0,0,1-.55-.85.61.61,0,0,1,.23-.5.77.77,0,0,1,.52-.2,1.23,1.23,0,0,1,.55.15q.26.1.93.45a7.14,7.14,0,0,0,1.32.53,5.89,5.89,0,0,0,1.45.17,4.23,4.23,0,0,0,2-.4,4.33,4.33,0,0,0,1.45-1.45,6.93,6.93,0,0,0,.85-4.25c0-.4-.17-.6-.5-.6a.92.92,0,0,0-.45.15,43.32,43.32,0,0,1-7.82,4A63.23,63.23,0,0,1,163,171.3a2.27,2.27,0,0,1-.5,0,.9.9,0,0,1-.55-.15.45.45,0,0,1-.2-.35.76.76,0,0,1,.25-.55,1.74,1.74,0,0,1,.7-.4A46.82,46.82,0,0,0,170.62,166.45Zm1.52-27.4a1,1,0,0,0,.5.75,2,2,0,0,0,1,.5h5.55a1.8,1.8,0,0,0,1.5-.7,8.27,8.27,0,0,0,1-1.33,3.64,3.64,0,0,0,.53-1.12,2.56,2.56,0,0,0,.1-.55,1.35,1.35,0,0,0-.45-1,1.72,1.72,0,0,0-1.2-.4h-4.2a5.94,5.94,0,0,0-1.4.12,1.67,1.67,0,0,0-.85.73c-.63.9-1.2,1.65-1.7,2.25A1.43,1.43,0,0,0,172.14,139.05Zm.45,6.1a1.64,1.64,0,0,0,1.75,1.75h3.35a1.69,1.69,0,0,0,1.3-.48,1.76,1.76,0,0,0,.45-1.27V143.4a1.57,1.57,0,0,0-1.75-1.75h-3.35a1.8,1.8,0,0,0-1.28.45,1.72,1.72,0,0,0-.47,1.3Zm10,0a1.64,1.64,0,0,0,1.75,1.75h3.35a1.72,1.72,0,0,0,1.3-.47,1.8,1.8,0,0,0,.45-1.28v-1.8a1.57,1.57,0,0,0-1.75-1.75h-3.35a1.76,1.76,0,0,0-1.27.45,1.69,1.69,0,0,0-.48,1.3Z" transform="translate(-41.41 -129.1)"/><path d="M204.14,174.78a2.71,2.71,0,0,1-.5-1.53,1.85,1.85,0,0,1,.48-1.28,1.94,1.94,0,0,1,1.42-.57,52,52,0,0,0,6.45-.75,1.69,1.69,0,0,0,1.6-1.85l0-9.45a1.57,1.57,0,0,0-1.75-1.75h-3.15c-1.33,0-3,.07-4.85.2l-1.2.1a.83.83,0,0,1-.77-.28,1.1,1.1,0,0,1,0-1.47.87.87,0,0,1,.77-.25l1.2.1c2.1.13,3.72.2,4.85.2h11.75a1.72,1.72,0,0,0,1.3-.47,1.8,1.8,0,0,0,.45-1.28V140.2a1.57,1.57,0,0,0-1.75-1.75H210.24c-1.33,0-3,.07-4.85.2l-1.2.1a.85.85,0,0,1-.77-.27,1.08,1.08,0,0,1-.28-.73,1,1,0,0,1,.28-.75.87.87,0,0,1,.77-.25l1.2.1c2.1.13,3.72.2,4.85.2h10.25a1.72,1.72,0,0,0,1.3-.47,1.8,1.8,0,0,0,.45-1.28v-2.85a2.31,2.31,0,0,1,.73-1.87,2.67,2.67,0,0,1,1.82-.63,3,3,0,0,1,1.5.35c.4.23.6.47.6.7s-.27.42-.8.45a.64.64,0,0,0-.47.35,1.25,1.25,0,0,0-.18.65v2.85a1.64,1.64,0,0,0,1.75,1.75h9.65a3,3,0,0,0,1.68-.43,8.16,8.16,0,0,0,1.42-1.17,3.21,3.21,0,0,1,2.25-1.1,2.43,2.43,0,0,1,1.3.4,7.49,7.49,0,0,1,1.4,1.2,2,2,0,0,1,.55,1.25,1.08,1.08,0,0,1-.45.9,2.1,2.1,0,0,1-1.3.35l-16.5.05a1.76,1.76,0,0,0-1.27.45,1.69,1.69,0,0,0-.48,1.3v14.2a1.64,1.64,0,0,0,1.75,1.75h11.15a3,3,0,0,0,1.68-.43,8.16,8.16,0,0,0,1.42-1.17,3.21,3.21,0,0,1,2.25-1.1,2.43,2.43,0,0,1,1.3.4,7.49,7.49,0,0,1,1.4,1.2,2,2,0,0,1,.55,1.25,1.08,1.08,0,0,1-.45.9,2.1,2.1,0,0,1-1.3.35l-18.85.05c-.73,0-1.1.27-1.1.8a1.43,1.43,0,0,0,.2.7,26.41,26.41,0,0,0,4.5,6.15,1.3,1.3,0,0,0,.9.45,1.19,1.19,0,0,0,.8-.3,41.94,41.94,0,0,0,5.4-4.95,2.73,2.73,0,0,1,2-.95,2.4,2.4,0,0,1,1.7.72,3.32,3.32,0,0,1,.95,1.88l.05.3a1.07,1.07,0,0,1-.12.55.4.4,0,0,1-.33.2.59.59,0,0,1-.4-.2.82.82,0,0,0-.6-.25,1.41,1.41,0,0,0-.72.27l-.68.43a43.91,43.91,0,0,1-5.3,3c-.47.27-.7.57-.7.9s.2.53.6.8a31.28,31.28,0,0,0,12,4.25c.43,0,.65.22.65.55a.38.38,0,0,1-.22.33,1.1,1.1,0,0,1-.63.07,2.57,2.57,0,0,0-.55,0,4,4,0,0,0-2.22.7c-.72.47-1.11.88-1.18,1.25s-.25.65-.65.65a2.67,2.67,0,0,1-.5-.1,23.54,23.54,0,0,1-7.92-4.18,28.15,28.15,0,0,1-5.83-6.22,26.18,26.18,0,0,1-3.35-6.75,1.33,1.33,0,0,0-1.4-1.05h-3.2a1.76,1.76,0,0,0-1.27.45,1.69,1.69,0,0,0-.48,1.3v8.4a1.7,1.7,0,0,0,.38,1.17,1.27,1.27,0,0,0,1,.43,2.57,2.57,0,0,0,.55,0,56.88,56.88,0,0,0,6.35-2,1.06,1.06,0,0,1,.5-.1.73.73,0,0,1,.48.15.51.51,0,0,1,.17.4.85.85,0,0,1-.5.7,45,45,0,0,1-8.3,3.2q-5.59,1.7-10.15,2.6a3.34,3.34,0,0,0-1.1.35.37.37,0,0,0-.1.55.87.87,0,0,1,.15.4c0,.2-.12.3-.35.3l-.4-.1A2.66,2.66,0,0,1,204.14,174.78Zm3.7-33.68c0-.37.25-.55.75-.55a3.72,3.72,0,0,1,1.48.25,7.69,7.69,0,0,1,1.17.65,1.91,1.91,0,0,0,.85.4h2.35a1.89,1.89,0,0,0,.88-.23,3.72,3.72,0,0,0,.77-.52,6.42,6.42,0,0,1,.65-.48,1.37,1.37,0,0,1,.7-.22,3.18,3.18,0,0,1,1.63.5,6.15,6.15,0,0,1,1.4,1.15,1.82,1.82,0,0,1,.57,1,.77.77,0,0,1-.15.52,3.86,3.86,0,0,1-.45.43,2.51,2.51,0,0,0-.62.65,2,2,0,0,0-.23,1.05v6.6a2,2,0,0,1-2,2.05,1.41,1.41,0,0,1-1-.38,1.52,1.52,0,0,1-.4-1.17,2.13,2.13,0,0,0-.45-1.43,1.64,1.64,0,0,0-1.3-.52h-1.7a2,2,0,0,0-1.3.37,1.33,1.33,0,0,0-.45,1.08,1.91,1.91,0,0,1-.65,1.48,2.08,2.08,0,0,1-1.4.57,1.15,1.15,0,0,1-.82-.3,1.09,1.09,0,0,1-.33-.85Zm3.2,6.65a1.69,1.69,0,0,0,.45,1.25,1.91,1.91,0,0,0,1.3.5l1.85.05a1.6,1.6,0,0,0,1.28-.43,1.79,1.79,0,0,0,.47-1.32V145a1.57,1.57,0,0,0-1.75-1.75h-1.85a1.76,1.76,0,0,0-1.27.45A1.69,1.69,0,0,0,211,145Zm17.05-6.65c0-.37.25-.55.75-.55a3.72,3.72,0,0,1,1.48.25,7.69,7.69,0,0,1,1.17.65,1.91,1.91,0,0,0,.85.4h2.35a1.89,1.89,0,0,0,.88-.23,3.72,3.72,0,0,0,.77-.52,6.42,6.42,0,0,1,.65-.48,1.37,1.37,0,0,1,.7-.22,3.18,3.18,0,0,1,1.63.5,6.15,6.15,0,0,1,1.4,1.15,1.82,1.82,0,0,1,.57,1,.77.77,0,0,1-.15.52,3.86,3.86,0,0,1-.45.43,2.51,2.51,0,0,0-.62.65,2,2,0,0,0-.23,1.05v6.6a2,2,0,0,1-2,2.05,1.41,1.41,0,0,1-1-.38,1.52,1.52,0,0,1-.4-1.17,2.13,2.13,0,0,0-.45-1.43,1.64,1.64,0,0,0-1.3-.52H233a2,2,0,0,0-1.3.37,1.33,1.33,0,0,0-.45,1.08,1.91,1.91,0,0,1-.65,1.48,2.08,2.08,0,0,1-1.4.57,1.15,1.15,0,0,1-.82-.3,1.09,1.09,0,0,1-.33-.85Zm3.2,6.65a1.69,1.69,0,0,0,.45,1.25,1.91,1.91,0,0,0,1.3.5l1.85.05a1.6,1.6,0,0,0,1.28-.43,1.79,1.79,0,0,0,.47-1.32V145a1.57,1.57,0,0,0-1.75-1.75H233a1.76,1.76,0,0,0-1.27.45,1.69,1.69,0,0,0-.48,1.3Z" transform="translate(-41.41 -129.1)"/><path d="M264.09,168.08a28.59,28.59,0,0,0,6.25-11.78,2.57,2.57,0,0,0,.05-.55,1.3,1.3,0,0,0-.42-1,1.74,1.74,0,0,0-1.18-.38h-8.55c-1.33,0-2.95.07-4.85.2l-1.2.1a.85.85,0,0,1-.77-.27,1.08,1.08,0,0,1-.28-.73,1,1,0,0,1,.28-.75.87.87,0,0,1,.77-.25l1.2.1c2.1.13,3.72.2,4.85.2h9.25a1.69,1.69,0,0,0,1.85-1.6,38.78,38.78,0,0,0,.35-5.4V144.8a1.57,1.57,0,0,0-1.75-1.75l-5.7-.05a2.16,2.16,0,0,0-2.05,1.25,25.5,25.5,0,0,1-5.65,6.55,1.83,1.83,0,0,1-1.15.6c-.23,0-.35-.13-.35-.4a1.57,1.57,0,0,1,.55-1.1,20.83,20.83,0,0,0,3.85-6.07,27.48,27.48,0,0,0,2.2-8.68,3.4,3.4,0,0,1,1-2.17,2.7,2.7,0,0,1,1.95-.83,2.84,2.84,0,0,1,1.65.55,1,1,0,0,1,.5.75.36.36,0,0,1-.2.35.94.94,0,0,1-.55,0c-.3,0-.55.19-.75.67a13.58,13.58,0,0,0-.6,2.68,21.55,21.55,0,0,1-.55,2.4,3.87,3.87,0,0,0-.1.7,1.18,1.18,0,0,0,.4.95,1.72,1.72,0,0,0,1.15.35h4.4a1.63,1.63,0,0,0,1.8-1.75l.05-7.3a2.34,2.34,0,0,1,.73-1.88,2.71,2.71,0,0,1,1.82-.62,3,3,0,0,1,1.5.35c.4.23.6.47.6.7s-.27.42-.8.45a.64.64,0,0,0-.47.35,1.25,1.25,0,0,0-.18.65c0,3.23,0,5.67-.05,7.3a1.57,1.57,0,0,0,1.75,1.75h5a3,3,0,0,0,1.68-.43,8.16,8.16,0,0,0,1.42-1.17,3.18,3.18,0,0,1,2.2-1.1,3.82,3.82,0,0,1,2.75,1.6,2,2,0,0,1,.55,1.25,1.08,1.08,0,0,1-.45.9,2.1,2.1,0,0,1-1.3.35l-11.9.05a1.79,1.79,0,0,0-1.32.47,1.74,1.74,0,0,0-.48,1.28v1.7c0,.5,0,.9,0,1.2,0,1.17-.05,2.3-.15,3.4s.5,1.85,1.7,1.85h9.35a3,3,0,0,0,1.68-.43,8.16,8.16,0,0,0,1.42-1.17,3.18,3.18,0,0,1,2.2-1.1,3.82,3.82,0,0,1,2.75,1.6,2,2,0,0,1,.55,1.25,1.08,1.08,0,0,1-.45.9,2.1,2.1,0,0,1-1.3.35l-15.75.05a1.79,1.79,0,0,0-1.17.35,1.15,1.15,0,0,0-.43.95,1.89,1.89,0,0,0,.1.7,21.55,21.55,0,0,0,4.9,8.43,27,27,0,0,0,7.55,5.7,22.43,22.43,0,0,0,7.9,2.42,1.15,1.15,0,0,1,.55.2.41.41,0,0,1,.2.3.42.42,0,0,1-.22.35.84.84,0,0,1-.58.1,3.66,3.66,0,0,0-2.15.32,2.33,2.33,0,0,0-1.15,1.13c-.17.43-.4.65-.7.65l-.45-.1a25,25,0,0,1-6.67-3.18,28.79,28.79,0,0,1-6.28-5.57,23.77,23.77,0,0,1-4.3-7.35c-.23-.63-.48-1-.75-1s-.47.32-.7,1a24.67,24.67,0,0,1-7,10.25,27.6,27.6,0,0,1-11.53,5.7,2.57,2.57,0,0,1-.55.05,1.35,1.35,0,0,1-.75-.2.55.55,0,0,1-.3-.45c0-.37.38-.65,1.15-.85A19.81,19.81,0,0,0,264.09,168.08Z" transform="translate(-41.41 -129.1)"/><path class="a" d="M42.41,167.79l15.48-17.17a1.87,1.87,0,0,1,2.61-.17l5.73,5a1.88,1.88,0,0,0,2.2.18l1.73-1.06a1.87,1.87,0,0,1,2.24.23l3.72,3.44" transform="translate(-41.41 -129.1)"/><circle class="b" cx="33.02" cy="17.13" r="3.8"/><circle class="b" cx="40.71" cy="39.69" r="7.69"/><path class="a" d="M71.21,171.19H43.8a1.38,1.38,0,0,1-1.39-1.38V137.89a1.39,1.39,0,0,1,1.39-1.39H83.68a1.38,1.38,0,0,1,1.38,1.39v20.27" transform="translate(-41.41 -129.1)"/><line class="a" x1="36.59" y1="39.69" x2="44.83" y2="39.69"/></svg>